<svg xmlns="http://www.w3.org/2000/svg" viewBox="0 0 163 126"><rect width="163" height="126" rx="29.23" style="fill:#f45ba5"/><rect x="29" y="116" width="10" height="10" style="fill:#ef2e93"/><rect x="39" y="106" width="10" height="10" style="fill:#ea3da1"/><rect x="57" y="116" width="10" height="10" style="fill:#ef2e93"/><rect x="49" y="96" width="10" height="10" style="fill:#ef2e93"/><rect x="76" y="82" width="10" height="10" style="fill:#ea3da1"/><rect x="67" y="106" width="10" height="10" style="fill:#ea3da1"/><rect x="49" y="86" width="10" height="10" style="fill:#ea3da1"/><rect x="29" y="96" width="10" height="10" style="fill:#f76dbc"/><rect x="18" y="106" width="10" height="10" style="fill:#ea3da1"/><rect x="8" y="96" width="10" height="10" style="fill:#ef2e93"/><rect y="73" width="10" height="10" style="fill:#f76dbc"/><rect x="90" y="116" width="10" height="10" style="fill:#ef2e93"/><rect x="95" y="95" width="10" height="10" style="fill:#ef2e93"/><rect x="103" y="106" width="10" height="10" style="fill:#f76dbc"/><rect x="123" y="106" width="10" height="10" style="fill:#ef2e93"/><rect x="124" y="78" width="10" height="10" style="fill:#f76dbc"/><rect x="113" y="96" width="10" height="10" style="fill:#ea3da1"/><rect x="123" y="116" width="10" height="10" style="fill:#ce3a8f"/><rect x="113" y="116" width="10" height="10" style="fill:#ef2e93"/><rect x="134" y="88" width="10" height="10" style="fill:#ef3aab"/><rect x="153" y="77" width="10" height="10" style="fill:#ef2e93"/><rect x="143" y="63" width="10" height="10" style="fill:#ef56ad"/><rect x="145" y="106" width="10" height="10" style="fill:#f76dbc"/><rect x="124" y="68" width="10" height="10" style="fill:#ea3da1"/><rect x="117" y="40" width="10" height="10" style="fill:#f76dbc"/><rect x="143" y="32" width="10" height="10" style="fill:#ef2e93"/><rect x="116" y="9" width="10" height="10" style="fill:#ef2e93"/><rect x="75" y="25" width="10" height="10" style="fill:#ef2e93"/><rect x="88" y="13" width="10" height="10" style="fill:#f76dbc"/><rect x="66" y="2" width="10" height="10" style="fill:#f76dbc"/><rect x="39" y="28" width="10" height="10" style="fill:#f76dbc"/><rect x="16" y="48" width="10" height="10" style="fill:#f76dbc"/><rect x="16" y="28" width="10" height="10" style="fill:#ef2e93"/><rect x="6" y="38" width="10" height="10" style="fill:#ef2e93"/><rect x="29" y="2" width="10" height="10" style="fill:#ef2e93"/><rect x="153" y="42" width="10" height="10" style="fill:#bc3783"/><rect x="67" y="96" width="10" height="10" style="fill:#ce3a8f"/><rect x="143" y="22" width="10" height="10" style="fill:#f44ead"/><rect x="19.14" y="72.47" width="10" height="10" style="fill:#f76dbc"/><rect x="29.14" y="72.47" width="10" height="10" style="fill:#ef2e93"/><polyline points="39.95 55.4 39.95 73.38 123.95 74.4 123.95 56.84" style="fill:none;stroke:#fff;stroke-linecap:round;stroke-linejoin:round;stroke-width:4px"/></svg>