<svg xmlns="http://www.w3.org/2000/svg" viewBox="0 0 163 126"><rect width="163" height="126" rx="29.23" style="fill:#f45ba5"/><rect x="29" y="116" width="10" height="10" style="fill:#ef2e93"/><rect x="39" y="106" width="10" height="10" style="fill:#ea3da1"/><rect x="57" y="116" width="10" height="10" style="fill:#ef2e93"/><rect x="49" y="96" width="10" height="10" style="fill:#ef2e93"/><rect x="76" y="82" width="10" height="10" style="fill:#ea3da1"/><rect x="67" y="106" width="10" height="10" style="fill:#ea3da1"/><rect x="49" y="86" width="10" height="10" style="fill:#ea3da1"/><rect x="29" y="96" width="10" height="10" style="fill:#f76dbc"/><rect x="18" y="106" width="10" height="10" style="fill:#ea3da1"/><rect x="8" y="96" width="10" height="10" style="fill:#ef2e93"/><rect y="73" width="10" height="10" style="fill:#f76dbc"/><rect x="90" y="116" width="10" height="10" style="fill:#ef2e93"/><rect x="95" y="95" width="10" height="10" style="fill:#ef2e93"/><rect x="103" y="106" width="10" height="10" style="fill:#f76dbc"/><rect x="77" y="106" width="10" height="10" style="fill:#ce3a8f"/><rect x="123" y="106" width="10" height="10" style="fill:#ef2e93"/><rect x="124" y="78" width="10" height="10" style="fill:#f76dbc"/><rect x="113" y="96" width="10" height="10" style="fill:#ea3da1"/><rect x="123" y="116" width="10" height="10" style="fill:#ce3a8f"/><rect x="113" y="116" width="10" height="10" style="fill:#ef2e93"/><rect x="134" y="88" width="10" height="10" style="fill:#ef3aab"/><rect x="153" y="77" width="10" height="10" style="fill:#ef2e93"/><rect x="143" y="63" width="10" height="10" style="fill:#ef56ad"/><rect x="145" y="106" width="10" height="10" style="fill:#f76dbc"/><rect x="124" y="68" width="10" height="10" style="fill:#ea3da1"/><rect x="117" y="40" width="10" height="10" style="fill:#f76dbc"/><rect x="143" y="32" width="10" height="10" style="fill:#ef2e93"/><rect x="116" y="9" width="10" height="10" style="fill:#ef2e93"/><rect x="75" y="25" width="10" height="10" style="fill:#ef2e93"/><rect x="88" y="13" width="10" height="10" style="fill:#f76dbc"/><rect x="66" y="2" width="10" height="10" style="fill:#f76dbc"/><rect x="39" y="28" width="10" height="10" style="fill:#f76dbc"/><rect x="16" y="48" width="10" height="10" style="fill:#f76dbc"/><rect x="16" y="28" width="10" height="10" style="fill:#ef2e93"/><rect x="6" y="38" width="10" height="10" style="fill:#ef2e93"/><rect x="29" y="2" width="10" height="10" style="fill:#ef2e93"/><rect x="153" y="42" width="10" height="10" style="fill:#bc3783"/><rect x="67" y="96" width="10" height="10" style="fill:#ce3a8f"/><rect x="143" y="22" width="10" height="10" style="fill:#f44ead"/><rect x="65.88" y="42.89" width="62" height="37" style="fill:#f45ba5;stroke:#fff;stroke-miterlimit:10;stroke-width:4px"/><rect x="63.88" y="40.89" width="10" height="10" style="fill:#fff"/><rect x="73.88" y="50.89" width="10" height="10" style="fill:#7c7c7c"/><rect x="73.88" y="60.89" width="10" height="10" style="fill:#e8e8e8"/><rect x="83.88" y="50.89" width="10" height="10" style="fill:#fffdfe"/><rect x="106.88" y="50.89" width="10" height="10" style="fill:#cccacb"/><rect x="93.88" y="70.89" width="10" height="10" style="fill:#fff"/><rect x="116.88" y="70.89" width="10" height="10" style="fill:#f7f7f7"/><rect x="116.88" y="40.89" width="10" height="10" style="fill:#fff"/><polyline points="68.88 42.89 68.88 27.72 31.88 61.39 68.88 94.79 68.88 79.89" style="fill:none;stroke:#fff;stroke-miterlimit:10;stroke-width:4px"/></svg>