<svg xmlns="http://www.w3.org/2000/svg" viewBox="0 0 553 671"><ellipse cx="276.5" cy="335.5" rx="274" ry="333" style="fill:#f49bf9;stroke:#000;stroke-miterlimit:10;stroke-width:5px"/><path d="M964.5,639a222.5,222.5,0,1,1,157.33-65.17A221,221,0,0,1,964.5,639Z" transform="translate(-686.5 -172.5)" style="fill:#353535"/><path d="M964.5,198a217.78,217.78,0,1,1-85,17.17,217.2,217.2,0,0,1,85-17.17m0-8C839.41,190,738,291.41,738,416.5S839.41,643,964.5,643,1191,541.59,1191,416.5,1089.59,190,964.5,190Z" transform="translate(-686.5 -172.5)"/><path d="M743,443c2.09-13.24-14.11,183.6,192.21,362.3,12.78,11.07,31.76,11.7,46,2.89C1033,776.19,1155,669.22,1187,436" transform="translate(-686.5 -172.5)" style="fill:#353535;stroke:#000;stroke-miterlimit:10;stroke-width:8px"/><path d="M756.39,531s214.68,154,411.14,0" transform="translate(-686.5 -172.5)" style="fill:none;stroke:#1e1e1e;stroke-miterlimit:10;stroke-width:12px"/><line x1="276.5" y1="426.89" x2="273.5" y2="641.75" style="fill:none;stroke:#1e1e1e;stroke-miterlimit:10;stroke-width:12px"/><rect x="161.5" y="119.5" width="235" height="206" style="fill:none;stroke:#fff;stroke-miterlimit:10;stroke-width:12px"/></svg>